# xmcd CD database file
#
# Track frame offsets:
#	187
#	50787
#	83377
#	104890
#	129407
#	180585
#
# Disc length: 2745 seconds
#
# Revision: 0
# Processed by: cddbd v1.5.1PL2 Copyright (c) Steve Scherf et al.
# Submitted via: CDex 1.60beta1
#
DISCID=4b0ab706
DTITLE=Eric Dolphy - Last Date
DYEAR=1964
DGENRE=Jazz
TTITLE0=Epistrophy
TTITLE1=South Street Exit
TTITLE2=The Madrig Speaks, The Panther Walks
TTITLE3=Hypochristmutreefuzz
TTITLE4=You Don't Know What Love Is
TTITLE5=Miss Ann
EXTD=YEAR: 1964
EXTT0=
EXTT1=
EXTT2=
EXTT3=
EXTT4=
EXTT5=
PLAYORDER=
